<svg width="18" height="17" viewBox="0 0 18 17" fill="none" xmlns="http://www.w3.org/2000/svg">
<g id="Insta">
<path id="Vector" d="M12.1878 1.82316C13.1312 1.82587 14.0351 2.18795 14.7022 2.8303C15.3692 3.47266 15.7452 4.34311 15.748 5.25154V12.1076C15.7452 13.016 15.3692 13.8864 14.7022 14.5288C14.0351 15.1712 13.1312 15.5332 12.1878 15.5359H5.06809C4.12472 15.5332 3.2208 15.1712 2.55373 14.5288C1.88667 13.8864 1.51067 13.016 1.50785 12.1076V5.25154C1.51067 4.34311 1.88667 3.47266 2.55373 2.8303C3.2208 2.18795 4.12472 1.82587 5.06809 1.82316H12.1878ZM12.1878 0.452026H5.06809C2.32678 0.452026 0.0839844 2.61175 0.0839844 5.25154V12.1076C0.0839844 14.7473 2.32678 16.9071 5.06809 16.9071H12.1878C14.9291 16.9071 17.1719 14.7473 17.1719 12.1076V5.25154C17.1719 2.61175 14.9291 0.452026 12.1878 0.452026Z" fill="white"/>
<path id="Vector_2" d="M13.2558 5.25207C13.0446 5.25207 12.8381 5.19176 12.6624 5.07875C12.4868 4.96574 12.3499 4.80512 12.2691 4.6172C12.1883 4.42928 12.1671 4.22249 12.2083 4.02299C12.2495 3.82349 12.3512 3.64024 12.5006 3.49641C12.65 3.35258 12.8403 3.25463 13.0474 3.21495C13.2546 3.17527 13.4693 3.19564 13.6645 3.27348C13.8596 3.35132 14.0264 3.48313 14.1438 3.65226C14.2612 3.82139 14.3238 4.02022 14.3238 4.22363C14.3241 4.35877 14.2967 4.49263 14.2431 4.61754C14.1895 4.74245 14.1109 4.85594 14.0117 4.9515C13.9124 5.04705 13.7946 5.1228 13.6649 5.17438C13.5351 5.22596 13.3961 5.25236 13.2558 5.25207ZM8.62794 5.93745C9.19124 5.93745 9.7419 6.09831 10.2103 6.39967C10.6786 6.70103 11.0437 7.12937 11.2593 7.63053C11.4748 8.13168 11.5312 8.68313 11.4213 9.21514C11.3114 9.74716 11.0402 10.2359 10.6419 10.6194C10.2435 11.003 9.73606 11.2642 9.18358 11.37C8.6311 11.4758 8.05844 11.4215 7.53801 11.2139C7.01759 11.0064 6.57277 10.6548 6.25982 10.2038C5.94686 9.75278 5.77983 9.22253 5.77983 8.68008C5.78063 7.95293 6.08096 7.25579 6.61491 6.74161C7.14886 6.22744 7.87282 5.93823 8.62794 5.93745ZM8.62794 4.56632C7.78302 4.56632 6.95708 4.80759 6.25455 5.25962C5.55203 5.71164 5.00448 6.35412 4.68114 7.10582C4.35781 7.85751 4.27321 8.68465 4.43804 9.48264C4.60288 10.2806 5.00975 11.0136 5.60719 11.589C6.20464 12.1643 6.96584 12.5561 7.79452 12.7148C8.6232 12.8735 9.48215 12.7921 10.2628 12.4807C11.0434 12.1693 11.7106 11.6421 12.18 10.9656C12.6494 10.2891 12.8999 9.49371 12.8999 8.68008C12.8999 7.58905 12.4498 6.5427 11.6487 5.77122C10.8475 4.99974 9.76094 4.56632 8.62794 4.56632Z" fill="white"/>
</g>
</svg>
