<svg width="75.967316" height="46.000000" viewBox="0 0 75.9673 46" fill="none" xmlns="http://www.w3.org/2000/svg" xmlns:xlink="http://www.w3.org/1999/xlink">
	<desc>
			Created with Pixso.
	</desc>
	<defs>
		<linearGradient id="paint_linear_1_11_0" x1="5.785801" y1="0.000000" x2="5.785801" y2="46.000000" gradientUnits="userSpaceOnUse">
			<stop stop-color="#C0B7E8"/>
			<stop offset="1.000000" stop-color="#8176AF"/>
		</linearGradient>
		<linearGradient id="paint_linear_1_12_0" x1="21.802998" y1="0.000000" x2="21.802998" y2="46.000000" gradientUnits="userSpaceOnUse">
			<stop stop-color="#C0B7E8"/>
			<stop offset="1.000000" stop-color="#8176AF"/>
		</linearGradient>
		<linearGradient id="paint_linear_1_13_0" x1="37.804073" y1="0.000000" x2="37.804073" y2="46.000000" gradientUnits="userSpaceOnUse">
			<stop stop-color="#C0B7E8"/>
			<stop offset="1.000000" stop-color="#8176AF"/>
		</linearGradient>
		<linearGradient id="paint_linear_1_14_0" x1="53.020206" y1="0.000000" x2="53.020206" y2="46.000000" gradientUnits="userSpaceOnUse">
			<stop stop-color="#C0B7E8"/>
			<stop offset="1.000000" stop-color="#8176AF"/>
		</linearGradient>
		<linearGradient id="paint_linear_1_15_0" x1="69.037445" y1="0.000000" x2="69.037445" y2="46.000000" gradientUnits="userSpaceOnUse">
			<stop stop-color="#C0B7E8"/>
			<stop offset="1.000000" stop-color="#8176AF"/>
		</linearGradient>
	</defs>
	<path id="Vector" d="M0 0L2.32086 0L2.32086 27.4049L9.25076 27.4049L9.25076 0L11.5716 0L11.5716 46L9.25076 46L9.25076 29.7131L2.32086 29.7131L2.32086 46L0 46L0 0Z" fill="url(#paint_linear_1_11_0)" fill-opacity="1.000000" fill-rule="nonzero"/>
	<path id="Vector" d="M28.7329 0L22.9798 29.7131L22.9798 46L20.6589 46L20.6589 29.7131L14.8731 0L16.9978 0L21.8357 24.7717L26.6408 0L28.7329 0Z" fill="url(#paint_linear_1_12_0)" fill-opacity="1.000000" fill-rule="nonzero"/>
	<path id="Vector" d="M38.997 46L32.0344 46L32.0344 0L38.9643 0C41.5467 0 43.5734 2.04807 43.5734 4.58374L43.5734 41.3838C43.606 43.8869 41.5467 46 38.997 46ZM34.3553 2.30814L34.3553 43.6919L38.9643 43.6919C40.2065 43.6919 41.2852 42.6516 41.2852 41.3838L41.2852 4.58374C41.2852 3.34842 40.2392 2.2756 38.9643 2.2756L34.3553 2.2756L34.3553 2.30814Z" fill="url(#paint_linear_1_13_0)" fill-opacity="1.000000" fill-rule="nonzero"/>
	<path id="Vector" d="M58.806 46L56.4198 46L52.3338 29.7131L49.5553 29.7131L49.5553 46L47.2344 46L47.2344 0L54.1643 0C56.7467 0 58.7733 2.04807 58.7733 4.58374L58.7733 25.0968C58.7733 27.4049 56.9755 29.3555 54.6873 29.6155L58.806 46ZM49.5553 27.4049L54.1643 27.4049C55.4064 27.4049 56.4852 26.3647 56.4852 25.0968L56.4852 4.58374C56.4852 3.34842 55.4391 2.2756 54.1643 2.2756L49.5553 2.2756L49.5553 27.4049Z" fill="url(#paint_linear_1_14_0)" fill-opacity="1.000000" fill-rule="nonzero"/>
	<path id="Vector" d="M65.8013 29.7131L64.1996 46L62.1075 46L66.7493 0L71.3583 0L75.9673 46L73.8753 46L72.2736 29.7131L65.8013 29.7131ZM69.4951 2.30814L68.5798 2.30814L66.0628 27.4049L72.0121 27.4049L69.4951 2.30814Z" fill="url(#paint_linear_1_15_0)" fill-opacity="1.000000" fill-rule="nonzero"/>
</svg>
