<svg width="114.000000" height="119.000000" viewBox="0 0 114 119" fill="none" xmlns="http://www.w3.org/2000/svg" xmlns:xlink="http://www.w3.org/1999/xlink">
	<desc>
			Created with Pixso.
	</desc>
	<defs>
		<filter id="filter_1_5_dd" x="0.000000" y="0.000000" width="114.000000" height="119.000000" filterUnits="userSpaceOnUse" color-interpolation-filters="sRGB">
			<feFlood flood-opacity="0" result="BackgroundImageFix"/>
			<feColorMatrix in="SourceAlpha" type="matrix" values="0 0 0 0 0 0 0 0 0 0 0 0 0 0 0 0 0 0 127 0" result="hardAlpha"/>
			<feOffset dx="0" dy="10"/>
			<feGaussianBlur stdDeviation="2"/>
			<feComposite in2="hardAlpha" operator="out" k2="-1" k3="1"/>
			<feColorMatrix type="matrix" values="0 0 0 0 0 0 0 0 0 0 0 0 0 0 0 0 0 0 0.25 0"/>
			<feBlend mode="normal" in2="BackgroundImageFix" result="effect_dropShadow_1"/>
			<feBlend mode="normal" in="SourceGraphic" in2="effect_dropShadow_1" result="shape"/>
		</filter>
		<clipPath id="clip1_5">
			<rect id="Frame" width="102.000000" height="103.000000" transform="translate(6.000000 0.000000)" fill="white" fill-opacity="0"/>
		</clipPath>
		<linearGradient id="paint_linear_1_6_0" x1="56.996613" y1="0.001160" x2="56.996613" y2="102.926903" gradientUnits="userSpaceOnUse">
			<stop stop-color="#C0B7E8"/>
			<stop offset="1.000000" stop-color="#8176AF"/>
		</linearGradient>
	</defs>
	<g filter="url(#filter_1_5_dd)">
		<rect id="Frame" width="102.000000" height="103.000000" transform="translate(6.000000 0.000000)" fill="#FFFFFF" fill-opacity="0"/>
		<g clip-path="url(#clip1_5)">
			<path id="Vector" d="M106.772 41.2578C108.108 48.9756 99.9123 46.9199 99.9123 46.9199C96.4822 37.2546 90.9941 38.1562 90.9941 38.1562C95.2907 41.2939 95.6157 43.9626 95.6157 43.9626C84.17 35.8481 68.6082 42.3758 62.6868 45.4413C59.3651 40.7529 52.6493 30.2581 55.0323 25.4977C58.1735 19.2585 64.5643 22.8289 64.5643 22.8289C77.4904 22.6125 76.7682 17.9962 76.7682 17.9962C73.3381 20.665 63.2284 17.9962 63.2284 17.9962C72.0022 17.9962 75.7212 14.4259 75.7212 14.4259C69.1859 16.0488 61.8925 9.08832 61.8925 9.08832C59.2206 -4.58008 46.8723 1.22629 46.8723 1.22629C54.5991 -0.108093 52.541 8.07852 52.541 8.07852C42.8645 11.5046 43.7672 16.9865 43.7672 16.9865C46.9084 12.6948 49.5803 12.3702 49.5803 12.3702C40.7343 24.8124 49.2553 42.1234 51.7828 46.6314C47.1611 49.8411 36.3293 56.9098 31.455 54.4574C25.2086 51.3198 28.7831 44.9364 28.7831 44.9364C28.6387 32.0253 24.0171 32.7466 24.0171 32.7466C26.689 36.1727 24.0171 46.2708 24.0171 46.2708C24.0171 37.5071 20.4426 33.7924 20.4426 33.7924C22.0674 40.3201 15.0989 47.6051 15.0989 47.6051C1.41461 50.2739 7.22772 62.6079 7.22772 62.6079C5.89178 54.8901 14.0879 56.9458 14.0879 56.9458C17.5179 66.6111 23.0061 65.7095 23.0061 65.7095C18.7095 62.5719 18.3845 59.9031 18.3845 59.9031C30.4801 68.4865 47.1973 60.6965 52.2521 57.9556C55.6461 62.8243 61.9647 72.8502 59.6178 77.5025C56.4766 83.7417 50.0858 80.1713 50.0858 80.1713C37.1597 80.3156 37.8819 84.9318 37.8819 84.9318C41.312 82.2631 51.4217 84.9318 51.4217 84.9318C42.6479 84.9318 38.929 88.5022 38.929 88.5022C45.4642 86.8793 52.7576 93.8397 52.7576 93.8397C55.4294 107.508 67.7778 101.702 67.7778 101.702C60.0511 103.036 62.1091 94.8495 62.1091 94.8495C71.7856 91.4234 70.8829 85.9416 70.8829 85.9416C67.7417 90.2333 65.0698 90.5579 65.0698 90.5579C73.7354 78.4041 65.7559 61.5621 63.0479 56.6212C67.9583 53.1951 77.8875 47.0642 82.473 49.3723C88.7194 52.5099 85.1449 58.8933 85.1449 58.8933C85.2893 71.8044 89.9109 71.0831 89.9109 71.0831C87.239 67.657 89.9109 57.5589 89.9109 57.5589C89.9109 66.3226 93.4854 70.0372 93.4854 70.0372C91.8606 63.5096 98.8291 56.2245 98.8291 56.2245C112.586 53.5918 106.772 41.2578 106.772 41.2578Z" fill="url(#paint_linear_1_6_0)" fill-opacity="1.000000" fill-rule="nonzero"/>
		</g>
	</g>
</svg>
