<svg width="32.000000" height="32.000000" viewBox="0 0 32 32" fill="none" xmlns="http://www.w3.org/2000/svg" xmlns:xlink="http://www.w3.org/1999/xlink">
	<desc>
			Created with Pixso.
	</desc>
	<defs/>
	<path id="facebook" d="M0 16C0 7.16357 7.16345 0 16 0C24.8365 0 32 7.16357 32 16C32 24.8364 24.8365 32 16 32C7.16345 32 0 24.8364 0 16ZM16 8C20.4 8 24 11.6001 24 16C24 20 21.1 23.3999 17.1 24L17.1 18.2998L19 18.2998L19.4 16L17.2 16L17.2 14.5C17.2 13.8999 17.5 13.2998 18.5 13.2998L19.5 13.2998L19.5 11.2998C19.5 11.2998 18.6 11.1001 17.7 11.1001C15.9 11.1001 14.7 12.2002 14.7 14.2002L14.7 16L12.7 16L12.7 18.2998L14.7 18.2998L14.7 23.8999C10.9 23.2998 8 20 8 16C8 11.6001 11.6 8 16 8Z" fill="#C0B7E8" fill-opacity="1.000000" fill-rule="evenodd"/>
</svg>
