<svg width="32.000000" height="32.000000" viewBox="0 0 32 32" fill="none" xmlns="http://www.w3.org/2000/svg" xmlns:xlink="http://www.w3.org/1999/xlink">
	<desc>
			Created with Pixso.
	</desc>
	<defs/>
	<path id="instagram" d="M16 0C7.16345 0 0 7.16357 0 16C0 24.8364 7.16345 32 16 32C24.8365 32 32 24.8364 32 16C32 7.16357 24.8365 0 16 0ZM21.4 8.1001C20.9 7.8999 20.3 7.7998 19.4 7.7002L12.6 7.7002C11.7 7.7002 11.1 7.8999 10.6 8.1001C10.1 8.2998 9.59998 8.6001 9.09998 9.1001C8.59998 9.6001 8.40002 10 8.09998 10.6001C7.90002 11.1001 7.79999 11.7002 7.70001 12.6001L7.70001 19.3999C7.70001 20.2998 7.90002 20.8999 8.09998 21.3999C8.29999 21.8999 8.59998 22.3999 9.09998 22.8999C9.59998 23.3999 10 23.6001 10.6 23.8999C11.1 24.1001 11.7 24.2002 12.6 24.2998L19.4 24.2998C20.3 24.2998 20.9 24.1001 21.4 23.8999C21.9 23.7002 22.4 23.3999 22.9 22.8999C23.4 22.3999 23.6 22 23.9 21.3999C24.1 20.8999 24.2 20.2998 24.3 19.3999L24.3 12.6001C24.3 11.7002 24.1 11.1001 23.9 10.6001C23.7 10.1001 23.4 9.6001 22.9 9.1001C22.4 8.6001 22 8.3999 21.4 8.1001ZM20.7525 9.44775C20.4667 9.34277 20.0762 9.2002 19.4 9.2002L12.6 9.2002C11.8 9.2998 11.4 9.3999 11.1 9.5C10.7 9.6001 10.4 9.7998 10.1 10.1001C9.86261 10.3374 9.75043 10.5747 9.61487 10.8618C9.57916 10.9375 9.54169 11.0166 9.5 11.1001C9.48456 11.1465 9.46667 11.1953 9.44751 11.2476C9.3429 11.5332 9.20001 11.9238 9.20001 12.6001L9.20001 19.3999C9.29999 20.2002 9.40002 20.6001 9.5 20.8999C9.59998 21.2998 9.79999 21.6001 10.1 21.8999C10.3374 22.1372 10.5748 22.2495 10.8617 22.3853C10.9374 22.4209 11.0165 22.4585 11.1 22.5C11.1464 22.5156 11.1952 22.5332 11.2475 22.5522C11.5333 22.6572 11.9238 22.7998 12.6 22.7998L19.4 22.7998C20.2 22.7002 20.6 22.6001 20.9 22.5C21.3 22.3999 21.6 22.2002 21.9 21.8999C22.1374 21.6626 22.2496 21.4253 22.3851 21.1382C22.4208 21.0625 22.4583 20.9834 22.5 20.8999C22.5154 20.8535 22.5333 20.8047 22.5525 20.7524C22.6571 20.4668 22.8 20.0762 22.8 19.3999L22.8 12.6001C22.7 11.7998 22.6 11.3999 22.5 11.1001C22.4 10.7002 22.2 10.3999 21.9 10.1001C21.6626 9.86279 21.4252 9.75049 21.1383 9.61475C21.0627 9.5791 20.9833 9.5415 20.9 9.5C20.8536 9.48438 20.8048 9.4668 20.7525 9.44775ZM21.4 11.6001C21.4 12.1523 20.9523 12.6001 20.4 12.6001C19.8477 12.6001 19.4 12.1523 19.4 11.6001C19.4 11.0479 19.8477 10.6001 20.4 10.6001C20.9523 10.6001 21.4 11.0479 21.4 11.6001ZM16 11.7002C13.6 11.7002 11.7 13.6001 11.7 16C11.7 18.3999 13.6 20.2998 16 20.2998C18.4 20.2998 20.3 18.3999 20.3 16C20.3 13.6001 18.4 11.7002 16 11.7002ZM16 18.7998C14.5 18.7998 13.2 17.6001 13.2 16C13.2 14.5 14.4 13.2002 16 13.2002C17.5 13.2002 18.8 14.3999 18.8 16C18.8 17.5 17.5 18.7998 16 18.7998Z" fill="#C0B7E8" fill-opacity="1.000000" fill-rule="evenodd"/>
</svg>
