<svg width="70.000000" height="70.000000" viewBox="0 0 70 70" fill="none" xmlns="http://www.w3.org/2000/svg" xmlns:xlink="http://www.w3.org/1999/xlink">
	<desc>
			Created with Pixso.
	</desc>
	<defs>
		<clipPath id="clip3_10">
			<rect id="Location-Icon" width="70.000000" height="70.000000" fill="white" fill-opacity="0"/>
		</clipPath>
	</defs>
	<rect id="Location-Icon" width="70.000000" height="70.000000" fill="#FFFFFF" fill-opacity="0"/>
	<g clip-path="url(#clip3_10)">
		<path id="Combined-Shape" d="M35 5.83331C46.2758 5.83331 55.4166 14.9742 55.4166 26.25C55.4166 29.6593 54.5834 32.8717 53.1039 35.6983L35 67.0833L17.3154 36.4595C15.575 33.4541 14.5833 29.9692 14.5833 26.25C14.5833 14.9742 23.7242 5.83331 35 5.83331ZM35 11.6667C26.9458 11.6667 20.4166 18.1958 20.4166 26.25C20.4166 28.566 20.9509 30.7882 21.962 32.7943L22.452 33.6892L35 55.4167L47.6366 33.5362C48.9071 31.3423 49.5833 28.8555 49.5833 26.25C49.5833 18.1958 43.0541 11.6667 35 11.6667ZM35 17.5C39.8325 17.5 43.75 21.4175 43.75 26.25C43.75 31.0825 39.8325 35 35 35C30.1675 35 26.25 31.0825 26.25 26.25C26.25 21.4175 30.1675 17.5 35 17.5ZM35 23.3333C33.3892 23.3333 32.0833 24.6392 32.0833 26.25C32.0833 27.8608 33.3892 29.1667 35 29.1667C36.6108 29.1667 37.9166 27.8608 37.9166 26.25C37.9166 24.6392 36.6108 23.3333 35 23.3333Z" fill="#C0B7E8" fill-opacity="1.000000" fill-rule="evenodd"/>
	</g>
</svg>
