<svg width="32.000000" height="32.000000" viewBox="0 0 32 32" fill="none" xmlns="http://www.w3.org/2000/svg" xmlns:xlink="http://www.w3.org/1999/xlink">
	<desc>
			Created with Pixso.
	</desc>
	<defs/>
	<path id="linkedin" d="M0 16C0 7.16357 7.16345 0 16 0C24.8365 0 32 7.16357 32 16C32 24.8364 24.8365 32 16 32C7.16345 32 0 24.8364 0 16ZM8.20001 13.2998L8.20001 24L11.6 24L11.6 13.2998L8.20001 13.2998ZM8 9.8999C8 11 8.79999 11.7998 9.89999 11.7998C11 11.7998 11.8 11 11.8 9.8999C11.8 8.7998 11 8 9.89999 8C8.89999 8 8 8.7998 8 9.8999ZM20.6 24L23.8 24L23.8 17.3999C23.8 14.1001 21.8 13 19.9 13C18.2 13 17 14.1001 16.7 14.7998L16.7 13.2998L13.5 13.2998L13.5 24L16.9 24L16.9 18.2998C16.9 16.7998 17.9 16 18.9 16C19.9 16 20.6 16.5 20.6 18.2002L20.6 24Z" fill="#C0B7E8" fill-opacity="1.000000" fill-rule="evenodd"/>
</svg>
