<svg width="59.000000" height="59.000000" viewBox="0 0 59 59" fill="none" xmlns="http://www.w3.org/2000/svg" xmlns:xlink="http://www.w3.org/1999/xlink">
	<desc>
			Created with Pixso.
	</desc>
	<defs>
		<clipPath id="clip3_28">
			<rect id="outline / phone-call" width="59.000000" height="59.000000" fill="white" fill-opacity="0"/>
		</clipPath>
	</defs>
	<g clip-path="url(#clip3_28)">
		<path id="shape" d="M51.6236 47.1667C51.634 49.7131 49.3443 51.8395 46.7733 51.6077C24.5835 51.625 7.37512 34.2568 7.39249 12.2159C7.16093 9.65866 9.27682 7.37759 11.8201 7.37521L18.4948 7.37521C19.5745 7.36462 20.6213 7.74622 21.44 8.44891C23.7676 10.4467 25.2647 17.2274 24.6887 19.923C24.239 22.0276 22.1175 23.4999 20.6752 24.9394C23.8425 30.4985 28.4545 35.1014 34.0246 38.2624C35.4669 36.823 36.9422 34.7057 39.0509 34.2568C41.7561 33.6811 48.5804 35.1804 50.5702 37.5241C51.2758 38.3552 51.6507 39.4161 51.6236 40.5051L51.6236 47.1667ZM35.6458 15.9792C37.458 16.3327 39.2569 17.1319 40.5625 18.4375C41.868 19.7431 42.6672 21.542 43.0208 23.3542M36.875 7.375C40.64 7.79327 44.028 9.61472 46.7083 12.2917C49.3886 14.9686 51.202 18.3605 51.625 22.125" stroke="#C0B7E8" stroke-opacity="1.000000" stroke-width="6.000000" stroke-linejoin="round"/>
	</g>
</svg>
