<svg width="32.000000" height="32.000000" viewBox="0 0 32 32" fill="none" xmlns="http://www.w3.org/2000/svg" xmlns:xlink="http://www.w3.org/1999/xlink">
	<desc>
			Created with Pixso.
	</desc>
	<defs/>
	<path id="pinterest" d="M0 16C0 7.16357 7.16345 0 16 0C24.8365 0 32 7.16357 32 16C32 24.8364 24.8365 32 16 32C7.16345 32 0 24.8364 0 16ZM8 16C8 11.6001 11.6 8 16 8C20.4 8 24 11.6001 23.9 15.6001C23.9 20 20.3 23.6001 15.9 23.6001C15.1 23.6001 14.3 23.5 13.6 23.2998C13.9 22.7998 14.2 22.2002 14.4 21.6001C14.5 21.2002 15 19.3999 15 19.3999C15.3 19.8999 16.1 20.3999 17 20.3999C19.6 20.3999 21.3 18 21.3 14.8999C21.3 12.5 19.3 10.2998 16.2 10.2998C12.4 10.2998 10.5 13 10.5 15.2998C10.5 16.7002 11 17.8999 12.1 18.3999C12.3 18.5 12.4 18.3999 12.5 18.2002C12.6 18.1001 12.7 17.7002 12.7 17.6001C12.7707 17.4585 12.7414 17.417 12.6829 17.3345C12.6586 17.2998 12.6293 17.2588 12.6 17.2002C12.3 16.7998 12.1 16.2998 12.1 15.6001C12.1 13.6001 13.6 11.7998 16 11.7998C18.1 11.7998 19.3 13.1001 19.3 14.8999C19.3 17.2998 18.3 19.2002 16.8 19.2002C15.9 19.2002 15.3 18.5 15.5 17.7002C15.5835 17.2827 15.7192 16.8477 15.8491 16.4316C16.0303 15.8516 16.2 15.3076 16.2 14.8999C16.2 14.2002 15.8 13.7002 15.1 13.7002C14.3 13.7002 13.6 14.6001 13.6 15.7998C13.6 16.6001 13.9 17.1001 13.9 17.1001C13.9 17.1001 13.1 20.7998 12.9 21.5C12.8 22.1001 12.8 22.6997 12.8 23.2998C10 22.1001 8 19.2998 8 16Z" fill="#C0B7E8" fill-opacity="1.000000" fill-rule="evenodd"/>
</svg>
