<svg width="32.000000" height="32.000000" viewBox="0 0 32 32" fill="none" xmlns="http://www.w3.org/2000/svg" xmlns:xlink="http://www.w3.org/1999/xlink">
	<desc>
			Created with Pixso.
	</desc>
	<defs/>
	<path id="twitter" d="M0 16C0 7.16357 7.16345 0 16 0C24.8365 0 32 7.16357 32 16C32 24.8364 24.8365 32 16 32C7.16345 32 0 24.8364 0 16ZM22.1 11.5C22.8 11.3999 23.4 11.2998 24 11C23.6 11.7002 23 12.2998 22.3 12.7002C22.5 17.3999 19.1 22.5 13 22.5C11.2 22.5 9.5 21.8999 8 21C9.70001 21.2002 11.5 20.7002 12.7 19.7998C11.2 19.7998 10 18.7998 9.60001 17.5C10.1 17.6001 10.6 17.5 11.1 17.3999C9.60001 17 8.5 15.6001 8.5 14.1001C9 14.2998 9.5 14.5 10 14.5C8.60001 13.5 8.10001 11.6001 9 10.1001C10.7 12.1001 13.1 13.3999 15.8 13.5C15.3 11.5 16.9 9.5 19 9.5C19.9 9.5 20.8 9.8999 21.4 10.5C22.2 10.2998 22.9 10.1001 23.5 9.7002C23.3 10.5 22.8 11.1001 22.1 11.5Z" fill="#C0B7E8" fill-opacity="1.000000" fill-rule="evenodd"/>
</svg>
