<svg width="32.000000" height="32.000000" viewBox="0 0 32 32" fill="none" xmlns="http://www.w3.org/2000/svg" xmlns:xlink="http://www.w3.org/1999/xlink">
	<desc>
			Created with Pixso.
	</desc>
	<defs/>
	<path id="youtube" d="M16 0C7.16345 0 0 7.16357 0 16C0 24.8364 7.16345 32 16 32C24.8365 32 32 24.8364 32 16C32 7.16357 24.8365 0 16 0ZM23.6 12.1001C23.4 11.3999 22.9 10.8999 22.2 10.7002C21 10.3999 15.9 10.3999 15.9 10.3999C15.9 10.3999 10.9 10.3999 9.60001 10.7002C8.89999 10.8999 8.39999 11.3999 8.20001 12.1001C8 13.3999 8 16 8 16C8 16 8 18.6001 8.29999 19.8999C8.5 20.6001 9 21.1001 9.70001 21.2998C10.9 21.6001 16 21.6001 16 21.6001C16 21.6001 21 21.6001 22.3 21.2998C23 21.1001 23.5 20.6001 23.7 19.8999C24 18.6001 24 16 24 16C24 16 24 13.3999 23.6 12.1001ZM14.4 13.6001L18.6 16L14.4 18.3999L14.4 13.6001Z" fill="#C0B7E8" fill-opacity="1.000000" fill-rule="evenodd"/>
</svg>
