<svg width="22" height="33" viewBox="0 0 22 33" fill="none" xmlns="http://www.w3.org/2000/svg">
<g id="Group">
<path id="Vector" d="M18.9327 0.737549H3.02858C1.72571 0.737549 0.669922 1.7933 0.669922 3.09618V30.0073C0.669922 31.3102 1.72571 32.366 3.02858 32.366H18.9327C20.2355 32.366 21.2913 31.3102 21.2913 30.0073V3.09618C21.2913 1.81576 20.2131 0.737549 18.9327 0.737549Z" fill="white"/>
<path id="Vector_2" d="M20.1456 4.53394H1.79297V26.7278H20.1456V4.53394Z" fill="#404040"/>
<g id="Group_2">
<g id="Group_3">
<path id="Vector_3" d="M14.7314 2.15247H7.20612C6.91409 2.15247 6.64453 2.39956 6.64453 2.71405C6.64453 3.02854 6.89163 3.27564 7.20612 3.27564H14.7314C15.0234 3.27564 15.2929 3.02854 15.2929 2.71405C15.2929 2.42203 15.0459 2.15247 14.7314 2.15247Z" fill="#6639A6"/>
</g>
</g>
<path id="Vector_4" d="M9.18359 29.4009C9.18359 28.4126 9.99228 27.5814 10.9807 27.5814C11.9691 27.5814 12.8002 28.3901 12.8002 29.4009C12.8002 30.3893 11.9915 31.198 10.9807 31.198C9.99228 31.2205 9.18359 30.4118 9.18359 29.4009Z" fill="#6639A6"/>
</g>
</svg>
