<svg width="38" height="38" viewBox="0 0 38 38" fill="none" xmlns="http://www.w3.org/2000/svg">
<g id="Group 11">
<rect id="Rectangle 69" x="-0.0078125" y="0.000244141" width="37.024" height="37.024" rx="10.68" fill="#F6F6F6"/>
<path id="Vector" d="M18.4655 14.4757C16.2544 14.4757 14.4709 16.2592 14.4709 18.4703C14.4709 20.6814 16.2544 22.4649 18.4655 22.4649C20.6766 22.4649 22.46 20.6814 22.46 18.4703C22.46 16.2592 20.6766 14.4757 18.4655 14.4757ZM18.4655 21.0673C17.0366 21.0673 15.8685 19.9026 15.8685 18.4703C15.8685 17.0379 17.0331 15.8733 18.4655 15.8733C19.8978 15.8733 21.0625 17.0379 21.0625 18.4703C21.0625 19.9026 19.8943 21.0673 18.4655 21.0673ZM23.5551 14.3123C23.5551 14.8303 23.138 15.244 22.6234 15.244C22.1054 15.244 21.6917 14.8268 21.6917 14.3123C21.6917 13.7978 22.1089 13.3806 22.6234 13.3806C23.138 13.3806 23.5551 13.7978 23.5551 14.3123ZM26.2008 15.2579C26.1417 14.0099 25.8566 12.9043 24.9423 11.9934C24.0314 11.0826 22.9259 10.7975 21.6778 10.7349C20.3915 10.6619 16.536 10.6619 15.2496 10.7349C14.005 10.794 12.8995 11.0791 11.9851 11.99C11.0708 12.9008 10.7892 14.0064 10.7266 15.2545C10.6536 16.5408 10.6536 20.3963 10.7266 21.6826C10.7857 22.9307 11.0708 24.0363 11.9851 24.9471C12.8995 25.858 14.0016 26.1431 15.2496 26.2056C16.536 26.2786 20.3915 26.2786 21.6778 26.2056C22.9259 26.1465 24.0314 25.8615 24.9423 24.9471C25.8532 24.0363 26.1382 22.9307 26.2008 21.6826C26.2738 20.3963 26.2738 16.5443 26.2008 15.2579ZM24.539 23.0628C24.2678 23.7442 23.7429 24.2692 23.058 24.5438C22.0324 24.9506 19.5988 24.8567 18.4655 24.8567C17.3321 24.8567 14.895 24.9471 13.8729 24.5438C13.1915 24.2727 12.6666 23.7477 12.3919 23.0628C11.9851 22.0372 12.079 19.6036 12.079 18.4703C12.079 17.3369 11.9886 14.8999 12.3919 13.8777C12.6631 13.1963 13.188 12.6714 13.8729 12.3967C14.8985 11.99 17.3321 12.0838 18.4655 12.0838C19.5988 12.0838 22.0359 11.9934 23.058 12.3967C23.7394 12.6679 24.2644 13.1929 24.539 13.8777C24.9458 14.9033 24.8519 17.3369 24.8519 18.4703C24.8519 19.6036 24.9458 22.0407 24.539 23.0628Z" fill="#2A2F2F"/>
</g>
</svg>
