<svg width="38" height="38" viewBox="0 0 38 38" fill="none" xmlns="http://www.w3.org/2000/svg">
<g id="Group 12">
<rect id="Rectangle 71" x="0.984375" y="0.000244141" width="37.024" height="37.024" rx="10.68" fill="#F6F6F6"/>
<path id="Vector" d="M28.3472 14.9951C28.3585 15.1532 28.3585 15.3114 28.3585 15.4695C28.3585 20.2922 24.6879 25.849 17.979 25.849C15.9121 25.849 13.9921 25.2504 12.377 24.2114C12.6706 24.2452 12.9529 24.2565 13.2579 24.2565C14.9633 24.2565 16.5333 23.6805 17.787 22.6979C16.1832 22.664 14.8391 21.6137 14.376 20.168C14.602 20.2018 14.8278 20.2244 15.065 20.2244C15.3926 20.2244 15.7201 20.1792 16.025 20.1002C14.3535 19.7613 13.0998 18.2931 13.0998 16.5199V16.4747C13.5854 16.7458 14.1502 16.9152 14.7487 16.9377C13.7661 16.2827 13.1224 15.1645 13.1224 13.8995C13.1224 13.2219 13.303 12.6007 13.6193 12.0586C15.4151 14.2723 18.1145 15.7179 21.1414 15.8761C21.0849 15.605 21.051 15.3227 21.051 15.0403C21.051 13.0299 22.6774 11.3922 24.6991 11.3922C25.7495 11.3922 26.6982 11.8327 27.3646 12.5442C28.1891 12.3861 28.9797 12.0812 29.6799 11.6633C29.4088 12.5104 28.8328 13.2219 28.0761 13.6737C28.8103 13.5946 29.5218 13.3913 30.1769 13.109C29.68 13.8318 29.0588 14.4755 28.3472 14.9951Z" fill="#2A2F2F"/>
</g>
</svg>
