<svg width="812.300781" height="632.024414" viewBox="0 0 812.301 632.024" fill="none" xmlns="http://www.w3.org/2000/svg" xmlns:xlink="http://www.w3.org/1999/xlink">
	<desc>
			Created with Pixso.
	</desc>
	<defs/>
	<path id="Vector" d="M617.646 11.0078C617.646 11.0078 628.277 14.6924 624.688 17.1338C621.096 19.5742 609.174 50.999 611.639 55.083C614.104 59.166 621.824 45.6953 626.33 50.1777C630.836 54.6602 624.287 65.6904 617.342 64.8691C610.395 64.0479 607.133 57.124 608.775 48.4414C610.418 39.7578 616.027 26.2158 616.73 23.2588C617.436 20.3018 614.268 18.7764 609.385 21.6162C604.504 24.4561 595.914 19.5742 593.449 14.2705C590.986 8.96582 593.051 0.000976562 593.051 0.000976562C593.051 0.000976562 591.432 4.4834 599.576 6.52539C607.719 8.56738 614.807 9.78711 617.646 11.0078Z" fill="#FFFFFF" fill-opacity="1.000000" fill-rule="nonzero"/>
	<path id="Vector" d="M15.6465 188.81C20.9688 186.106 26.1309 183.105 31.1133 179.82C38.623 174.799 42.8477 177.216 41.7676 180.548C40.6895 183.881 47.1426 207.514 56.7656 220C66.3867 232.485 65.4961 218.239 72.748 215.775C80 213.311 83.918 220.469 78.3555 228.777C72.7949 237.085 60.2148 234.574 58.5488 229.481C56.8828 224.389 45.1016 202.069 41.6035 196.624C38.1074 191.18 35.5254 191.484 29.1895 197.798C26.4844 200.653 23.1113 202.792 19.377 204.021C15.6406 205.25 11.6562 205.531 7.78516 204.839C7.78516 204.839 20.7637 229.716 24.7305 237.695C28.6953 245.675 31.9824 255.767 37.8262 255.555C43.6699 255.344 50.2637 243.82 54.9102 250.861C59.5586 257.902 45.6875 269.895 38.2246 266.491C30.7617 263.089 26.1855 247.458 20.6465 236.662C15.1074 225.867 -0.921875 197.423 0.0410156 193.362C1.00195 189.302 8.46484 193.479 15.6465 188.81Z" fill="#FFFFFF" fill-opacity="1.000000" fill-rule="nonzero"/>
	<path id="Vector" d="M166.133 236.662C169.895 234.748 173.545 232.625 177.068 230.302C182.396 226.758 185.307 228.472 184.602 230.818C183.898 233.165 188.404 249.898 195.211 258.723C202.016 267.547 201.383 257.479 206.523 255.742C211.662 254.006 214.408 259.075 210.465 264.942C206.523 270.81 197.65 269.025 196.385 265.435C192.865 257.472 188.867 249.729 184.414 242.247C181.928 238.445 180.096 238.609 175.613 243.069C173.695 245.08 171.311 246.585 168.668 247.449C166.027 248.313 163.213 248.51 160.477 248.021C160.477 248.021 169.652 265.6 172.469 271.208C175.285 276.817 177.586 283.999 181.857 283.858C186.129 283.717 190.635 275.503 193.92 280.572C197.205 285.642 187.395 294.044 182.186 291.626C176.975 289.209 173.666 278.179 169.77 270.504C165.875 262.83 154.516 242.764 155.195 239.994C155.877 237.226 160.992 239.971 166.133 236.662Z" fill="#FFFFFF" fill-opacity="1.000000" fill-rule="nonzero"/>
	<path id="Vector" d="M701.842 73.3818C705.584 71.4697 709.219 69.3545 712.73 67.0449C718.059 63.4775 720.969 65.1914 720.266 67.5381C719.561 69.8848 724.066 86.6182 730.873 95.4658C737.678 104.313 737.045 94.1992 742.186 92.4619C747.324 90.7256 750.07 95.8184 746.127 101.662C742.186 107.506 733.312 105.745 732.047 102.154C728.527 94.1914 724.529 86.4482 720.076 78.9678C717.59 75.165 715.758 75.3301 711.275 79.7891C709.379 81.7812 707.021 83.2754 704.41 84.1396C701.797 85.0029 699.014 85.21 696.303 84.7412C696.303 84.7412 705.502 102.319 708.295 107.928C711.088 113.537 713.412 120.719 717.684 120.578C721.955 120.438 726.461 112.223 729.746 117.292C733.031 122.361 723.223 130.764 718.012 128.346C712.801 125.929 709.492 114.898 705.596 107.224C701.701 99.5498 690.342 79.46 691.021 76.7139C691.703 73.9688 696.771 76.6904 701.842 73.3818Z" fill="#FFFFFF" fill-opacity="1.000000" fill-rule="nonzero"/>
	<path id="Vector" d="M234.742 65.5088C234.742 65.5088 246.852 69.71 242.674 72.5498C238.496 75.3896 224.979 111.156 227.771 115.826C230.564 120.497 239.506 105.125 244.527 110.241C249.551 115.357 242.182 127.913 234.295 126.975C226.41 126.035 222.561 118.149 224.51 108.363C226.457 98.5771 232.889 82.7822 233.896 79.5195C234.906 76.2578 231.104 74.4033 225.518 77.666C219.934 80.9277 210.17 75.3193 207.377 69.2871C204.584 63.2559 206.908 53 206.908 53C206.908 53 205.053 58.1162 214.348 60.4395C223.641 62.7627 231.434 64.124 234.742 65.5088Z" fill="#FFFFFF" fill-opacity="1.000000" fill-rule="nonzero"/>
	<path id="Vector" d="M636.734 570.509C636.734 570.509 648.82 574.71 644.643 577.55C640.465 580.39 626.947 616.156 629.74 620.803C632.533 625.45 641.475 610.102 646.496 615.218C651.52 620.334 644.15 632.913 636.264 631.975C628.379 631.035 624.529 623.126 626.502 613.363C628.473 603.601 634.881 587.782 635.889 584.52C636.898 581.258 633.096 579.403 627.51 582.666C621.926 585.928 612.162 580.319 609.369 574.287C606.576 568.256 608.9 558 608.9 558C608.9 558 607.045 563.116 616.34 565.439C625.633 567.763 633.473 569.124 636.734 570.509Z" fill="#FFFFFF" fill-opacity="1.000000" fill-rule="nonzero"/>
	<path id="Vector" d="M196.359 496.886C196.359 496.886 208.471 501.087 204.27 503.927C200.068 506.767 186.598 542.533 189.391 547.227C192.184 551.921 201.008 536.525 206.146 541.642C211.287 546.758 203.801 559.313 195.891 558.375C187.982 557.436 184.273 549.55 186.127 539.764C187.982 529.978 194.506 514.183 195.516 510.92C196.525 507.658 192.723 505.804 187.137 509.066C181.551 512.328 171.766 506.72 168.973 500.688C166.18 494.656 168.525 484.4 168.525 484.4C168.525 484.4 166.648 489.517 175.965 491.84C185.283 494.163 193.098 495.595 196.359 496.886Z" fill="#FFFFFF" fill-opacity="1.000000" fill-rule="nonzero"/>
	<path id="Vector" d="M737.807 303.9C743.861 300.846 749.746 297.462 755.432 293.762C764.021 288.012 768.715 290.758 767.588 294.584C766.461 298.409 773.713 325.305 784.674 339.573C795.633 353.843 794.648 337.532 802.908 334.739C811.17 331.946 815.652 340.137 809.293 349.571C802.932 359.006 788.617 356.166 786.738 350.369C784.861 344.572 771.391 319.132 767.424 312.983C763.457 306.834 760.383 307.116 753.342 314.321C750.258 317.566 746.414 319.994 742.158 321.388C737.9 322.78 733.365 323.094 728.959 322.301C728.959 322.301 743.65 350.557 748.156 359.593C752.662 368.628 756.418 380.222 763.105 379.987C769.795 379.753 777.188 366.516 782.584 374.684C787.982 382.851 772.047 396.392 763.551 392.52C755.057 388.647 749.799 370.834 743.51 358.513C737.219 346.191 718.914 313.781 720.041 309.229C721.166 304.675 729.639 309.229 737.807 303.9Z" fill="#FFFFFF" fill-opacity="1.000000" fill-rule="nonzero"/>
	<path id="Vector" d="M9.64062 528.328C12.8711 526.685 16.0039 524.859 19.0273 522.859C23.6035 519.809 26.0684 521.287 25.5059 523.306C24.9414 525.324 28.7676 539.733 34.6113 547.291C40.4551 554.848 39.9375 546.211 44.3262 544.709C48.7148 543.207 51.1328 547.596 47.7305 552.618C44.3262 557.641 36.7227 556.139 35.7148 553.064C32.6797 546.216 29.2402 539.554 25.4102 533.115C23.2988 529.854 21.7031 529.994 17.8535 533.843C16.207 535.571 14.1582 536.863 11.8887 537.605C9.61914 538.347 7.20117 538.514 4.85156 538.091C4.85156 538.091 12.7383 553.205 15.1543 558.017C17.5723 562.827 19.543 569.023 23.1113 568.883C26.6777 568.741 30.668 561.701 33.4844 566.066C36.3008 570.432 27.875 577.637 23.3457 575.454C18.8164 573.271 16.0234 563.884 12.668 557.312C9.31055 550.741 -0.451172 533.468 0.134766 531.003C0.722656 528.539 5.27539 531.168 9.64062 528.328Z" fill="#FFFFFF" fill-opacity="1.000000" fill-rule="nonzero"/>
</svg>
